<?xml version="1.0" encoding="UTF-8" standalone="no"?>
<!-- Created with Inkscape (http://www.inkscape.org/) -->

<svg
   xmlns:dc="http://purl.org/dc/elements/1.1/"
   xmlns:cc="http://creativecommons.org/ns#"
   xmlns:rdf="http://www.w3.org/1999/02/22-rdf-syntax-ns#"
   xmlns:svg="http://www.w3.org/2000/svg"
   xmlns="http://www.w3.org/2000/svg"
   xmlns:sodipodi="http://sodipodi.sourceforge.net/DTD/sodipodi-0.dtd"
   xmlns:inkscape="http://www.inkscape.org/namespaces/inkscape"
   width="350"
   height="178.47379"
   id="svg2"
   inkscape:label="Pozadí"
   version="1.1"
   inkscape:version="0.48.4 r9939"
   sodipodi:docname="Nový dokument 9">
  <defs
     id="defs3988" />
  <sodipodi:namedview
     id="base"
     pagecolor="#ffffff"
     bordercolor="#666666"
     borderopacity="1.0"
     inkscape:pageopacity="0.0"
     inkscape:pageshadow="2"
     inkscape:zoom="0.35"
     inkscape:cx="36.298957"
     inkscape:cy="18.509767"
     inkscape:document-units="px"
     inkscape:current-layer="layer1"
     showgrid="false"
     fit-margin-top="0"
     fit-margin-left="0"
     fit-margin-right="0"
     fit-margin-bottom="0"
     inkscape:window-width="1920"
     inkscape:window-height="996"
     inkscape:window-x="1912"
     inkscape:window-y="-8"
     inkscape:window-maximized="1" />
  <metadata
     id="metadata3991">
    <rdf:RDF>
      <cc:Work
         rdf:about="">
        <dc:format>image/svg+xml</dc:format>
        <dc:type
           rdf:resource="http://purl.org/dc/dcmitype/StillImage" />
        <dc:title></dc:title>
      </cc:Work>
    </rdf:RDF>
  </metadata>
  <g
     inkscape:label="Vrstva 1"
     inkscape:groupmode="layer"
     id="layer1"
     transform="translate(-338.70104,-372.39816)">
    <path
       style="fill:#000000;fill-opacity:1;stroke:none"
       d="m 513.70107,372.39816 c -17.09245,14.98607 -19.57063,35.10519 -18.00749,51.64404 -1.14708,-0.25359 -2.32998,-0.38231 -3.55333,-0.38231 -9.07182,0 -16.43606,7.35011 -16.43606,16.42188 0,9.07173 7.36424,16.42189 16.43606,16.42189 3.95468,0 7.58447,-1.39503 10.41941,-3.72327 0.3394,0.85025 0.59458,1.44401 0.59458,1.44401 -15.77528,47.83992 -53.19566,24.14597 -66.32465,10.5893 3.83743,-2.03811 6.44139,-6.06877 6.44139,-10.71672 0,-6.70163 -5.4308,-12.13238 -12.13243,-12.13238 -6.70163,0 -12.13238,5.43075 -12.13238,12.13238 0,6.70168 5.4308,12.13238 12.13238,12.13238 0.29071,0 0.57819,-0.0241 0.8636,-0.0434 -3.24376,36.27166 -25.1758,52.38075 -54.81515,13.4631 0.44884,0.0506 0.91065,0.0709 1.37319,0.0709 6.70168,0 12.13238,-5.43075 12.13238,-12.13239 0,-6.70168 -5.4307,-12.13238 -12.13238,-12.13238 -5.56709,0 -10.25043,3.75104 -11.67935,8.86215 -6.45142,-10.2929 -36.40722,-16.86484 -26.00609,-8.40916 26.19927,21.29894 59.48692,94.96377 59.48692,94.96377 l 228.13693,0 c 6.68283,-14.29589 35.07506,-76.30336 58.02873,-94.96377 10.40114,-8.45568 -19.55462,-1.88374 -26.00604,8.40916 -1.42892,-5.11111 -6.11225,-8.86215 -11.67939,-8.86215 -6.70163,0 -12.13233,5.4307 -12.13233,12.13238 0,6.70164 5.4307,12.13239 12.13233,12.13239 0.46234,0 0.92415,-0.0193 1.37323,-0.0709 -29.63934,38.91765 -51.57148,22.80856 -54.81515,-13.4631 0.28541,0.0193 0.57304,0.0434 0.86355,0.0434 6.70164,0 12.13239,-5.4307 12.13239,-12.13238 0,-6.70163 -5.43075,-12.13238 -12.13239,-12.13238 -6.70163,0 -12.13238,5.43075 -12.13238,12.13238 0,4.64795 2.60396,8.67861 6.44135,10.71672 -13.129,13.55667 -50.54932,37.25062 -66.32461,-10.5893 0,0 0.25504,-0.59376 0.59459,-1.44401 2.83489,2.32824 6.46467,3.72327 10.4194,3.72327 9.07172,0 16.43601,-7.35016 16.43601,-16.42189 0,-9.07177 -7.36429,-16.42188 -16.43601,-16.42188 -1.22339,0 -2.40629,0.12872 -3.55337,0.38231 1.56314,-16.53885 -0.91499,-36.65797 -18.00744,-51.64404 z"
       id="path3033-2-2"
       inkscape:connector-curvature="0"
       sodipodi:nodetypes="ccssscccssssccssscsccscsssccsssscccssscc" />
  </g>
</svg>
